<svg version="1.1" xmlns="http://www.w3.org/2000/svg" xmlns:xlink="http://www.w3.org/1999/xlink" width="771" height="374"><defs/><g><g transform="translate(-70,-62) scale(1,1)"><rect fill="#C0C0C0" stroke="none" x="87" y="79" width="283.921875" height="90" opacity="0.2"/></g><g transform="translate(-70,-62) scale(1,1)"><rect fill="#ffffff" stroke="none" x="80" y="72" width="283.921875" height="90"/></g><g transform="translate(-70,-62) scale(1,1)"><path fill="none" stroke="#000000" d="M 80 72 L 363.921875 72 L 363.921875 162 L 80 162 L 80 72 Z Z" stroke-miterlimit="10"/></g><g transform="translate(-70,-62) scale(1,1)"><path fill="none" stroke="#000000" d="M 80 95 L 363.921875 95" stroke-miterlimit="10"/></g><g transform="translate(-70,-62) scale(1,1)"><path fill="none" stroke="#000000" d="M 108.05908203125 95 L 108.05908203125 162" stroke-miterlimit="10"/></g><g transform="translate(-70,-62) scale(1,1)"><path fill="none" stroke="#000000" d="M 213.1533203125 95 L 213.1533203125 162" stroke-miterlimit="10"/></g><g transform="translate(-70,-62) scale(1,1)"><g><path fill="none" stroke="none"/><text fill="#000000" stroke="none" font-family="Arial" font-size="13px" font-style="normal" font-weight="bold" text-decoration="none" x="203.181396484375" y="87.5">NODE</text></g></g><g transform="translate(-70,-62) scale(1,1)"><g><path fill="none" stroke="none"/><text fill="#000000" stroke="none" font-family="Arial" font-size="13px" font-style="normal" font-weight="normal" text-decoration="none" x="85" y="109">PK</text></g></g><g transform="translate(-70,-62) scale(1,1)"><g><path fill="none" stroke="none"/><text fill="#000000" stroke="none" font-family="Arial" font-size="13px" font-style="normal" font-weight="normal" text-decoration="none" x="113.05908203125" y="109">NODE_ID</text></g></g><g transform="translate(-70,-62) scale(1,1)"><g><path fill="none" stroke="none"/><text fill="#000000" stroke="none" font-family="Arial" font-size="13px" font-style="normal" font-weight="normal" text-decoration="none" x="218.1533203125" y="109">INTEGER</text></g></g><g transform="translate(-70,-62) scale(1,1)"><g><path fill="none" stroke="none"/><text fill="#000000" stroke="none" font-family="Arial" font-size="13px" font-style="normal" font-weight="normal" text-decoration="none" x="85" y="106"></text></g></g><g transform="translate(-70,-62) scale(1,1)"><g><path fill="none" stroke="none"/><text fill="#000000" stroke="none" font-family="Arial" font-size="13px" font-style="normal" font-weight="normal" text-decoration="none" x="85" y="115"></text></g></g><g transform="translate(-70,-62) scale(1,1)"><g><path fill="none" stroke="none"/><text fill="#000000" stroke="none" font-family="Arial" font-size="13px" font-style="normal" font-weight="normal" text-decoration="none" x="113.05908203125" y="124">CENTER</text></g></g><g transform="translate(-70,-62) scale(1,1)"><g><path fill="none" stroke="none"/><text fill="#000000" stroke="none" font-family="Arial" font-size="13px" font-style="normal" font-weight="normal" text-decoration="none" x="218.1533203125" y="124">BOOLEAN</text></g></g><g transform="translate(-70,-62) scale(1,1)"><g><path fill="none" stroke="none"/><text fill="#000000" stroke="none" font-family="Arial" font-size="13px" font-style="normal" font-weight="normal" text-decoration="none" x="85" y="121"></text></g></g><g transform="translate(-70,-62) scale(1,1)"><g><path fill="none" stroke="none"/><text fill="#000000" stroke="none" font-family="Arial" font-size="13px" font-style="normal" font-weight="normal" text-decoration="none" x="85" y="130"></text></g></g><g transform="translate(-70,-62) scale(1,1)"><g><path fill="none" stroke="none"/><text fill="#000000" stroke="none" font-family="Arial" font-size="13px" font-style="normal" font-weight="normal" text-decoration="none" x="113.05908203125" y="139">COORDINATES</text></g></g><g transform="translate(-70,-62) scale(1,1)"><g><path fill="none" stroke="none"/><text fill="#000000" stroke="none" font-family="Arial" font-size="13px" font-style="normal" font-weight="normal" text-decoration="none" x="218.1533203125" y="139">TUPLE(FLOAT, FLOAT)</text></g></g><g transform="translate(-70,-62) scale(1,1)"><g><path fill="none" stroke="none"/><text fill="#000000" stroke="none" font-family="Arial" font-size="13px" font-style="normal" font-weight="normal" text-decoration="none" x="85" y="136"></text></g></g><g transform="translate(-70,-62) scale(1,1)"><rect fill="#C0C0C0" stroke="none" x="607" y="79" width="231" height="120" opacity="0.2"/></g><g transform="translate(-70,-62) scale(1,1)"><rect fill="#ffffff" stroke="none" x="600" y="72" width="231" height="120"/></g><g transform="translate(-70,-62) scale(1,1)"><path fill="none" stroke="#000000" d="M 600 72 L 831 72 L 831 192 L 600 192 L 600 72 Z Z" stroke-miterlimit="10"/></g><g transform="translate(-70,-62) scale(1,1)"><path fill="none" stroke="#000000" d="M 600 95 L 831 95" stroke-miterlimit="10"/></g><g transform="translate(-70,-62) scale(1,1)"><path fill="none" stroke="#000000" d="M 628.05908203125 95 L 628.05908203125 192" stroke-miterlimit="10"/></g><g transform="translate(-70,-62) scale(1,1)"><path fill="none" stroke="#000000" d="M 725.2060546875 95 L 725.2060546875 192" stroke-miterlimit="10"/></g><g transform="translate(-70,-62) scale(1,1)"><g><path fill="none" stroke="none"/><text fill="#000000" stroke="none" font-family="Arial" font-size="13px" font-style="normal" font-weight="bold" text-decoration="none" x="697.0791015625" y="87.5">EDGE</text></g></g><g transform="translate(-70,-62) scale(1,1)"><g><path fill="none" stroke="none"/><text fill="#000000" stroke="none" font-family="Arial" font-size="13px" font-style="normal" font-weight="normal" text-decoration="none" x="605" y="109">PK</text></g></g><g transform="translate(-70,-62) scale(1,1)"><g><path fill="none" stroke="none"/><text fill="#000000" stroke="none" font-family="Arial" font-size="13px" font-style="normal" font-weight="normal" text-decoration="none" x="633.05908203125" y="109">EDGE_ID</text></g></g><g transform="translate(-70,-62) scale(1,1)"><g><path fill="none" stroke="none"/><text fill="#000000" stroke="none" font-family="Arial" font-size="13px" font-style="normal" font-weight="normal" text-decoration="none" x="730.2060546875" y="109">STRING</text></g></g><g transform="translate(-70,-62) scale(1,1)"><g><path fill="none" stroke="none"/><text fill="#000000" stroke="none" font-family="Arial" font-size="13px" font-style="normal" font-weight="normal" text-decoration="none" x="605" y="106"></text></g></g><g transform="translate(-70,-62) scale(1,1)"><g><path fill="none" stroke="none"/><text fill="#000000" stroke="none" font-family="Arial" font-size="13px" font-style="normal" font-weight="normal" text-decoration="none" x="605" y="115"></text></g></g><g transform="translate(-70,-62) scale(1,1)"><g><path fill="none" stroke="none"/><text fill="#000000" stroke="none" font-family="Arial" font-size="13px" font-style="normal" font-weight="normal" text-decoration="none" x="633.05908203125" y="124">SPEED</text></g></g><g transform="translate(-70,-62) scale(1,1)"><g><path fill="none" stroke="none"/><text fill="#000000" stroke="none" font-family="Arial" font-size="13px" font-style="normal" font-weight="normal" text-decoration="none" x="730.2060546875" y="124">FLOAT</text></g></g><g transform="translate(-70,-62) scale(1,1)"><g><path fill="none" stroke="none"/><text fill="#000000" stroke="none" font-family="Arial" font-size="13px" font-style="normal" font-weight="normal" text-decoration="none" x="605" y="121"></text></g></g><g transform="translate(-70,-62) scale(1,1)"><g><path fill="none" stroke="none"/><text fill="#000000" stroke="none" font-family="Arial" font-size="13px" font-style="normal" font-weight="normal" text-decoration="none" x="605" y="130"></text></g></g><g transform="translate(-70,-62) scale(1,1)"><g><path fill="none" stroke="none"/><text fill="#000000" stroke="none" font-family="Arial" font-size="13px" font-style="normal" font-weight="normal" text-decoration="none" x="633.05908203125" y="139">TIME</text></g></g><g transform="translate(-70,-62) scale(1,1)"><g><path fill="none" stroke="none"/><text fill="#000000" stroke="none" font-family="Arial" font-size="13px" font-style="normal" font-weight="normal" text-decoration="none" x="730.2060546875" y="139">FLOAT</text></g></g><g transform="translate(-70,-62) scale(1,1)"><g><path fill="none" stroke="none"/><text fill="#000000" stroke="none" font-family="Arial" font-size="13px" font-style="normal" font-weight="normal" text-decoration="none" x="605" y="136"></text></g></g><g transform="translate(-70,-62) scale(1,1)"><g><path fill="none" stroke="none"/><text fill="#000000" stroke="none" font-family="Arial" font-size="13px" font-style="normal" font-weight="normal" text-decoration="none" x="605" y="145"></text></g></g><g transform="translate(-70,-62) scale(1,1)"><g><path fill="none" stroke="none"/><text fill="#000000" stroke="none" font-family="Arial" font-size="13px" font-style="normal" font-weight="normal" text-decoration="none" x="633.05908203125" y="154">VALUE</text></g></g><g transform="translate(-70,-62) scale(1,1)"><g><path fill="none" stroke="none"/><text fill="#000000" stroke="none" font-family="Arial" font-size="13px" font-style="normal" font-weight="normal" text-decoration="none" x="730.2060546875" y="154">FLOAT</text></g></g><g transform="translate(-70,-62) scale(1,1)"><g><path fill="none" stroke="none"/><text fill="#000000" stroke="none" font-family="Arial" font-size="13px" font-style="normal" font-weight="normal" text-decoration="none" x="605" y="151"></text></g></g><g transform="translate(-70,-62) scale(1,1)"><g><path fill="none" stroke="none"/><text fill="#000000" stroke="none" font-family="Arial" font-size="13px" font-style="normal" font-weight="normal" text-decoration="none" x="605" y="169">FK</text></g></g><g transform="translate(-70,-62) scale(1,1)"><g><path fill="none" stroke="none"/><text fill="#000000" stroke="none" font-family="Arial" font-size="13px" font-style="normal" font-weight="normal" text-decoration="none" x="633.05908203125" y="169">ORIGIN</text></g></g><g transform="translate(-70,-62) scale(1,1)"><g><path fill="none" stroke="none"/><text fill="#000000" stroke="none" font-family="Arial" font-size="13px" font-style="normal" font-weight="normal" text-decoration="none" x="730.2060546875" y="169">INTEGER</text></g></g><g transform="translate(-70,-62) scale(1,1)"><g><path fill="none" stroke="none"/><text fill="#000000" stroke="none" font-family="Arial" font-size="13px" font-style="normal" font-weight="normal" text-decoration="none" x="605" y="166"></text></g></g><g transform="translate(-70,-62) scale(1,1)"><g><path fill="none" stroke="none"/><text fill="#000000" stroke="none" font-family="Arial" font-size="13px" font-style="normal" font-weight="normal" text-decoration="none" x="605" y="184">FK</text></g></g><g transform="translate(-70,-62) scale(1,1)"><g><path fill="none" stroke="none"/><text fill="#000000" stroke="none" font-family="Arial" font-size="13px" font-style="normal" font-weight="normal" text-decoration="none" x="633.05908203125" y="184">DESTINATION</text></g></g><g transform="translate(-70,-62) scale(1,1)"><g><path fill="none" stroke="none"/><text fill="#000000" stroke="none" font-family="Arial" font-size="13px" font-style="normal" font-weight="normal" text-decoration="none" x="730.2060546875" y="184">INTEGER</text></g></g><g transform="translate(-70,-62) scale(1,1)"><g><path fill="none" stroke="none"/><text fill="#000000" stroke="none" font-family="Arial" font-size="13px" font-style="normal" font-weight="normal" text-decoration="none" x="605" y="181"></text></g></g><g transform="translate(-70,-62) scale(1,1)"><rect fill="#C0C0C0" stroke="none" x="87" y="343" width="192" height="90" opacity="0.2"/></g><g transform="translate(-70,-62) scale(1,1)"><rect fill="#ffffff" stroke="none" x="80" y="336" width="192" height="90"/></g><g transform="translate(-70,-62) scale(1,1)"><path fill="none" stroke="#000000" d="M 80 336 L 272 336 L 272 426 L 80 426 L 80 336 Z Z" stroke-miterlimit="10"/></g><g transform="translate(-70,-62) scale(1,1)"><path fill="none" stroke="#000000" d="M 80 359 L 272 359" stroke-miterlimit="10"/></g><g transform="translate(-70,-62) scale(1,1)"><path fill="none" stroke="#000000" d="M 108.05908203125 359 L 108.05908203125 426" stroke-miterlimit="10"/></g><g transform="translate(-70,-62) scale(1,1)"><path fill="none" stroke="#000000" d="M 175.84814453125 359 L 175.84814453125 426" stroke-miterlimit="10"/></g><g transform="translate(-70,-62) scale(1,1)"><g><path fill="none" stroke="none"/><text fill="#000000" stroke="none" font-family="Arial" font-size="13px" font-style="normal" font-weight="bold" text-decoration="none" x="124.358642578125" y="351.5">HISTORIC_DATA</text></g></g><g transform="translate(-70,-62) scale(1,1)"><g><path fill="none" stroke="none"/><text fill="#000000" stroke="none" font-family="Arial" font-size="13px" font-style="normal" font-weight="normal" text-decoration="none" x="85" y="373">PK</text></g></g><g transform="translate(-70,-62) scale(1,1)"><g><path fill="none" stroke="none"/><text fill="#000000" stroke="none" font-family="Arial" font-size="13px" font-style="normal" font-weight="normal" text-decoration="none" x="113.05908203125" y="373">ENTRY</text></g></g><g transform="translate(-70,-62) scale(1,1)"><g><path fill="none" stroke="none"/><text fill="#000000" stroke="none" font-family="Arial" font-size="13px" font-style="normal" font-weight="normal" text-decoration="none" x="180.84814453125" y="373">INTEGER</text></g></g><g transform="translate(-70,-62) scale(1,1)"><g><path fill="none" stroke="none"/><text fill="#000000" stroke="none" font-family="Arial" font-size="13px" font-style="normal" font-weight="normal" text-decoration="none" x="85" y="370"></text></g></g><g transform="translate(-70,-62) scale(1,1)"><g><path fill="none" stroke="none"/><text fill="#000000" stroke="none" font-family="Arial" font-size="13px" font-style="normal" font-weight="normal" text-decoration="none" x="85" y="388">FK</text></g></g><g transform="translate(-70,-62) scale(1,1)"><g><path fill="none" stroke="none"/><text fill="#000000" stroke="none" font-family="Arial" font-size="13px" font-style="normal" font-weight="normal" text-decoration="none" x="113.05908203125" y="388">NODE_ID</text></g></g><g transform="translate(-70,-62) scale(1,1)"><g><path fill="none" stroke="none"/><text fill="#000000" stroke="none" font-family="Arial" font-size="13px" font-style="normal" font-weight="normal" text-decoration="none" x="180.84814453125" y="388">INTEGER</text></g></g><g transform="translate(-70,-62) scale(1,1)"><g><path fill="none" stroke="none"/><text fill="#000000" stroke="none" font-family="Arial" font-size="13px" font-style="normal" font-weight="normal" text-decoration="none" x="85" y="385"></text></g></g><g transform="translate(-70,-62) scale(1,1)"><g><path fill="none" stroke="none"/><text fill="#000000" stroke="none" font-family="Arial" font-size="13px" font-style="normal" font-weight="normal" text-decoration="none" x="85" y="394"></text></g></g><g transform="translate(-70,-62) scale(1,1)"><g><path fill="none" stroke="none"/><text fill="#000000" stroke="none" font-family="Arial" font-size="13px" font-style="normal" font-weight="normal" text-decoration="none" x="113.05908203125" y="403">WEIGHT</text></g></g><g transform="translate(-70,-62) scale(1,1)"><g><path fill="none" stroke="none"/><text fill="#000000" stroke="none" font-family="Arial" font-size="13px" font-style="normal" font-weight="normal" text-decoration="none" x="180.84814453125" y="403">FLOAT</text></g></g><g transform="translate(-70,-62) scale(1,1)"><g><path fill="none" stroke="none"/><text fill="#000000" stroke="none" font-family="Arial" font-size="13px" font-style="normal" font-weight="normal" text-decoration="none" x="85" y="400"></text></g></g><g transform="translate(-70,-62) scale(1,1)"><g><path fill="none" stroke="none"/><text fill="#000000" stroke="none" font-family="Arial" font-size="13px" font-style="normal" font-weight="normal" text-decoration="none" x="85" y="409"></text></g></g><g transform="translate(-70,-62) scale(1,1)"><g><path fill="none" stroke="none"/><text fill="#000000" stroke="none" font-family="Arial" font-size="13px" font-style="normal" font-weight="normal" text-decoration="none" x="113.05908203125" y="418">DATE</text></g></g><g transform="translate(-70,-62) scale(1,1)"><g><path fill="none" stroke="none"/><text fill="#000000" stroke="none" font-family="Arial" font-size="13px" font-style="normal" font-weight="normal" text-decoration="none" x="180.84814453125" y="418">DATETIME</text></g></g><g transform="translate(-70,-62) scale(1,1)"><g><path fill="none" stroke="none"/><text fill="#000000" stroke="none" font-family="Arial" font-size="13px" font-style="normal" font-weight="normal" text-decoration="none" x="85" y="415"></text></g></g><g transform="translate(-70,-62) scale(1,1)"><rect fill="#C0C0C0" stroke="none" x="607" y="335" width="183.57177734375" height="60" opacity="0.2"/></g><g transform="translate(-70,-62) scale(1,1)"><rect fill="#ffffff" stroke="none" x="600" y="328" width="183.57177734375" height="60"/></g><g transform="translate(-70,-62) scale(1,1)"><path fill="none" stroke="#000000" d="M 600 328 L 783.57177734375 328 L 783.57177734375 388 L 600 388 L 600 328 Z Z" stroke-miterlimit="10"/></g><g transform="translate(-70,-62) scale(1,1)"><path fill="none" stroke="#000000" d="M 600 351 L 783.57177734375 351" stroke-miterlimit="10"/></g><g transform="translate(-70,-62) scale(1,1)"><path fill="none" stroke="#000000" d="M 649 351 L 649 388" stroke-miterlimit="10"/></g><g transform="translate(-70,-62) scale(1,1)"><path fill="none" stroke="#000000" d="M 716.7890625 351 L 716.7890625 388" stroke-miterlimit="10"/></g><g transform="translate(-70,-62) scale(1,1)"><g><path fill="none" stroke="none"/><text fill="#000000" stroke="none" font-family="Arial" font-size="13px" font-style="normal" font-weight="bold" text-decoration="none" x="634.009521484375" y="343.5">ESTIMATED_DATA</text></g></g><g transform="translate(-70,-62) scale(1,1)"><g><path fill="none" stroke="none"/><text fill="#000000" stroke="none" font-family="Arial" font-size="13px" font-style="normal" font-weight="normal" text-decoration="none" x="605" y="365">PK,FK</text></g></g><g transform="translate(-70,-62) scale(1,1)"><g><path fill="none" stroke="none"/><text fill="#000000" stroke="none" font-family="Arial" font-size="13px" font-style="normal" font-weight="normal" text-decoration="none" x="654" y="365">NODE_ID</text></g></g><g transform="translate(-70,-62) scale(1,1)"><g><path fill="none" stroke="none"/><text fill="#000000" stroke="none" font-family="Arial" font-size="13px" font-style="normal" font-weight="normal" text-decoration="none" x="721.7890625" y="365">INTEGER</text></g></g><g transform="translate(-70,-62) scale(1,1)"><g><path fill="none" stroke="none"/><text fill="#000000" stroke="none" font-family="Arial" font-size="13px" font-style="normal" font-weight="normal" text-decoration="none" x="605" y="362"></text></g></g><g transform="translate(-70,-62) scale(1,1)"><g><path fill="none" stroke="none"/><text fill="#000000" stroke="none" font-family="Arial" font-size="13px" font-style="normal" font-weight="normal" text-decoration="none" x="605" y="371"></text></g></g><g transform="translate(-70,-62) scale(1,1)"><g><path fill="none" stroke="none"/><text fill="#000000" stroke="none" font-family="Arial" font-size="13px" font-style="normal" font-weight="normal" text-decoration="none" x="654" y="380">WEIGHT</text></g></g><g transform="translate(-70,-62) scale(1,1)"><g><path fill="none" stroke="none"/><text fill="#000000" stroke="none" font-family="Arial" font-size="13px" font-style="normal" font-weight="normal" text-decoration="none" x="721.7890625" y="380">FLOAT</text></g></g><g transform="translate(-70,-62) scale(1,1)"><g><path fill="none" stroke="none"/><text fill="#000000" stroke="none" font-family="Arial" font-size="13px" font-style="normal" font-weight="normal" text-decoration="none" x="605" y="377"></text></g></g><g transform="translate(-70,-62) scale(1,1)"><path fill="none" stroke="#000000" d="M 600 168 L 456 168 M 456 168 A 8 8 0 0 1 448 160 L 448 112 M 448 112 A 8 8 0 0 0 440 104 L 364 104" stroke-miterlimit="10"/></g><g transform="translate(-70,-62) scale(1,1)"><path fill="none" stroke="#000000" d="M 378 104 L 364 97" stroke-miterlimit="10"/></g><g transform="translate(-70,-62) scale(1,1)"><path fill="none" stroke="#000000" d="M 378 104 L 364 111" stroke-miterlimit="10"/></g><g transform="translate(-70,-62) scale(1,1)"><path fill="none" stroke="#000000" d="M 378 97 L 378 111" stroke-miterlimit="10"/></g><g transform="translate(-70,-62) scale(1,1)"><path fill="none" stroke="#000000" d="M 586 168 L 600 175" stroke-miterlimit="10"/></g><g transform="translate(-70,-62) scale(1,1)"><path fill="none" stroke="#000000" d="M 586 168 L 600 161" stroke-miterlimit="10"/></g><g transform="translate(-70,-62) scale(1,1)"><path fill="none" stroke="#000000" d="M 586 175 L 586 161" stroke-miterlimit="10"/></g><g transform="translate(-70,-62) scale(1,1)"><g><path fill="none" stroke="none"/><text fill="#000000" stroke="none" font-family="Arial" font-size="13px" font-style="normal" font-weight="normal" text-decoration="none" x="454.5" y="129.5">references</text></g></g><g transform="translate(-70,-62) scale(1,1)"><g><path fill="none" stroke="none"/><text fill="#000000" stroke="none" font-family="Arial" font-size="13px" font-style="normal" font-weight="normal" text-decoration="none" x="573.5" y="182"></text></g></g><g transform="translate(-70,-62) scale(1,1)"><g><path fill="none" stroke="none"/><text fill="#000000" stroke="none" font-family="Arial" font-size="13px" font-style="normal" font-weight="normal" text-decoration="none" x="388.5" y="118"></text></g></g><g transform="translate(-70,-62) scale(1,1)"><path fill="none" stroke="#000000" d="M 213 162 L 213 336" stroke-miterlimit="10"/></g><g transform="translate(-70,-62) scale(1,1)"><path fill="none" stroke="#000000" d="M 213 322 L 206 336" stroke-miterlimit="10"/></g><g transform="translate(-70,-62) scale(1,1)"><path fill="none" stroke="#000000" d="M 213 322 L 220 336" stroke-miterlimit="10"/></g><g transform="translate(-70,-62) scale(1,1)"><path fill="#FFFFFF" stroke="none" d="M 206 314 C 206 310.1340064 209.1340064 307 213 307 C 216.8659936 307 220 310.1340064 220 314 C 220 317.8659936 216.8659936 321 213 321 C 209.1340064 321 206 317.8659936 206 314 Z"/></g><g transform="translate(-70,-62) scale(1,1)"><path fill="none" stroke="#000000" d="M 206 314 C 206 310.1340064 209.1340064 307 213 307 C 216.8659936 307 220 310.1340064 220 314 C 220 317.8659936 216.8659936 321 213 321 C 209.1340064 321 206 317.8659936 206 314 Z" stroke-miterlimit="10"/></g><g transform="translate(-70,-62) scale(1,1)"><path fill="none" stroke="#000000" d="M 220 169 L 206 169" stroke-miterlimit="10"/></g><g transform="translate(-70,-62) scale(1,1)"><path fill="none" stroke="#000000" d="M 220 176 L 206 176" stroke-miterlimit="10"/></g><g transform="translate(-70,-62) scale(1,1)"><g><path fill="none" stroke="none"/><text fill="#000000" stroke="none" font-family="Arial" font-size="13px" font-style="normal" font-weight="normal" text-decoration="none" x="230.5" y="258.5">references</text></g></g><g transform="translate(-70,-62) scale(1,1)"><g><path fill="none" stroke="none"/><text fill="#000000" stroke="none" font-family="Arial" font-size="13px" font-style="normal" font-weight="normal" text-decoration="none" x="227.5" y="187"></text></g></g><g transform="translate(-70,-62) scale(1,1)"><g><path fill="none" stroke="none"/><text fill="#000000" stroke="none" font-family="Arial" font-size="13px" font-style="normal" font-weight="normal" text-decoration="none" x="227.5" y="310"></text></g></g><g transform="translate(-70,-62) scale(1,1)"><path fill="none" stroke="#000000" d="M 309 162 L 309 352 M 309 352 A 8 8 0 0 0 317 360 L 600 360" stroke-miterlimit="10"/></g><g transform="translate(-70,-62) scale(1,1)"><path fill="none" stroke="#000000" d="M 593 367 L 593 353" stroke-miterlimit="10"/></g><g transform="translate(-70,-62) scale(1,1)"><path fill="none" stroke="#000000" d="M 586 367 L 586 353" stroke-miterlimit="10"/></g><g transform="translate(-70,-62) scale(1,1)"><path fill="none" stroke="#000000" d="M 316 169 L 302 169" stroke-miterlimit="10"/></g><g transform="translate(-70,-62) scale(1,1)"><path fill="none" stroke="#000000" d="M 316 176 L 302 176" stroke-miterlimit="10"/></g><g transform="translate(-70,-62) scale(1,1)"><g><path fill="none" stroke="none"/><text fill="#000000" stroke="none" font-family="Arial" font-size="13px" font-style="normal" font-weight="normal" text-decoration="none" x="351.5" y="349.5">references</text></g></g><g transform="translate(-70,-62) scale(1,1)"><g><path fill="none" stroke="none"/><text fill="#000000" stroke="none" font-family="Arial" font-size="13px" font-style="normal" font-weight="normal" text-decoration="none" x="323.5" y="187"></text></g></g><g transform="translate(-70,-62) scale(1,1)"><g><path fill="none" stroke="none"/><text fill="#000000" stroke="none" font-family="Arial" font-size="13px" font-style="normal" font-weight="normal" text-decoration="none" x="573.5" y="345"></text></g></g></g></svg>